{"asset":{"version":"2.0","generator":"DADSMPVCKM prototype model gen"},"scene":0,"scenes":[{"nodes":[0,1]}],"nodes":[{"mesh":0},{"mesh":1}],"meshes":[{"primitives":[{"attributes":{"POSITION":0,"NORMAL":1},"indices":2,"material":0}]},{"primitives":[{"attributes":{"POSITION":3,"NORMAL":4},"indices":5,"material":1}]}],"materials":[{"name":"CardGold","pbrMetallicRoughness":{"baseColorFactor":[0.72,0.53,0.09,1],"metallicFactor":0.85,"roughnessFactor":0.34},"doubleSided":true},{"name":"ChipGold","pbrMetallicRoughness":{"baseColorFactor":[0.91,0.78,0.4,1],"metallicFactor":1,"roughnessFactor":0.25},"doubleSided":true}],"bufferViews":[{"buffer":0,"byteOffset":0,"byteLength":288,"target":34962},{"buffer":0,"byteOffset":288,"byteLength":288,"target":34962},{"buffer":0,"byteOffset":576,"byteLength":72,"target":34963},{"buffer":0,"byteOffset":648,"byteLength":288,"target":34962},{"buffer":0,"byteOffset":936,"byteLength":288,"target":34962},{"buffer":0,"byteOffset":1224,"byteLength":72,"target":34963}],"accessors":[{"bufferView":0,"componentType":5126,"count":24,"type":"VEC3","min":[-0.43,-0.27,-0.0175],"max":[0.43,0.27,0.0175]},{"bufferView":1,"componentType":5126,"count":24,"type":"VEC3"},{"bufferView":2,"componentType":5123,"count":36,"type":"SCALAR"},{"bufferView":3,"componentType":5126,"count":24,"type":"VEC3","min":[-0.34,0.020000000000000004,0.019999999999999997],"max":[-0.18,0.14,0.04]},{"bufferView":4,"componentType":5126,"count":24,"type":"VEC3"},{"bufferView":5,"componentType":5123,"count":36,"type":"SCALAR"}],"buffers":[{"byteLength":1296,"uri":"data:application/octet-stream;base64,"}]}